<?xml version="1.0" encoding="UTF-8"?>
<svg id="Layer_1" data-name="Layer 1" xmlns="http://www.w3.org/2000/svg" xmlns:xlink="http://www.w3.org/1999/xlink" viewBox="0 0 689.26 609.72">
  <defs>
    <style>
      .cls-1 {
        fill: #fff;
      }

      .cls-2 {
        fill: url(#linear-gradient);
        stroke: #000;
        stroke-miterlimit: 10;
      }
    </style>
    <linearGradient id="linear-gradient" x1="344.63" y1="596.07" x2="344.63" y2="17.71" gradientUnits="userSpaceOnUse">
      <stop offset="0" stop-color="#383838"/>
      <stop offset=".18" stop-color="#262626"/>
      <stop offset=".46" stop-color="#111"/>
      <stop offset=".74" stop-color="#040404"/>
      <stop offset="1" stop-color="#000"/>
    </linearGradient>
  </defs>
  <path class="cls-2" d="M493.07,.5H196.19c-16.88,0-32.48,9.01-40.92,23.63L6.83,281.23c-8.44,14.62-8.44,32.63,0,47.25l148.44,257.11c8.44,14.62,24.04,23.63,40.92,23.63H493.07c16.88,0,32.48-9.01,40.92-23.63l148.44-257.11c8.44-14.62,8.44-32.63,0-47.25L533.99,24.13c-8.44-14.62-24.04-23.63-40.92-23.63Z"/>
  <g>
    <path class="cls-1" d="M207.44,294.49h-57.97V143.81h57.38c15.5,0,28.9,3,40.21,9.01,11.3,6.01,20.04,14.64,26.19,25.9,6.15,11.26,9.23,24.73,9.23,40.43s-3.07,29.17-9.2,40.43c-6.13,11.26-14.81,19.89-26.04,25.9-11.23,6.01-24.5,9.01-39.8,9.01Zm-17.07-34.73h15.6c7.45,0,13.82-1.2,19.09-3.6,5.27-2.4,9.29-6.55,12.07-12.43,2.77-5.89,4.16-14.08,4.16-24.57s-1.41-18.69-4.23-24.57c-2.82-5.89-6.94-10.03-12.36-12.43-5.42-2.4-12.05-3.6-19.9-3.6h-14.42v81.22Z"/>
    <path class="cls-1" d="M286.81,294.49V143.81h108.59v32.96h-67.69v25.9h62.09v32.96h-62.09v25.9h67.39v32.96h-108.3Z"/>
    <path class="cls-1" d="M541.86,200.32h-41.49c-.29-3.43-1.07-6.55-2.32-9.34-1.25-2.8-2.97-5.21-5.15-7.25-2.18-2.03-4.82-3.6-7.91-4.71s-6.6-1.66-10.52-1.66c-6.87,0-12.67,1.67-17.4,5-4.73,3.34-8.31,8.12-10.74,14.35-2.43,6.23-3.64,13.71-3.64,22.44,0,9.22,1.24,16.93,3.71,23.14,2.48,6.21,6.07,10.86,10.78,13.98,4.71,3.12,10.37,4.67,17,4.67,3.78,0,7.16-.48,10.15-1.43,2.99-.96,5.59-2.34,7.8-4.16,2.21-1.81,4.01-4.01,5.41-6.58,1.4-2.57,2.34-5.48,2.83-8.72l41.49,.29c-.49,6.38-2.28,12.86-5.37,19.46-3.09,6.6-7.47,12.68-13.13,18.25-5.67,5.57-12.67,10.04-21,13.43-8.34,3.38-18.03,5.08-29.06,5.08-13.83,0-26.23-2.97-37.19-8.9-10.96-5.93-19.62-14.66-25.97-26.19-6.35-11.53-9.53-25.63-9.53-42.3s3.24-30.91,9.71-42.41c6.47-11.5,15.2-20.21,26.19-26.12,10.99-5.91,23.25-8.87,36.79-8.87,9.51,0,18.27,1.3,26.26,3.9,7.99,2.6,15.01,6.39,21.04,11.37,6.03,4.98,10.89,11.1,14.57,18.36,3.68,7.26,5.91,15.57,6.7,24.94Z"/>
    <path class="cls-1" d="M212.73,464.88c-8.78,0-17.1-1.39-24.98-4.16s-14.85-7.15-20.93-13.13c-6.08-5.98-10.85-13.78-14.31-23.39-3.46-9.61-5.16-21.26-5.11-34.95,.05-12.21,1.63-23.2,4.75-32.96,3.11-9.76,7.55-18.07,13.32-24.94,5.76-6.87,12.67-12.13,20.71-15.78,8.04-3.65,16.99-5.48,26.85-5.48,11.08,0,20.84,2.13,29.28,6.4,8.44,4.27,15.17,9.97,20.2,17.11,5.03,7.14,7.96,15,8.79,23.58h-40.32c-.93-4.27-3.08-7.39-6.44-9.38-3.36-1.99-7.2-2.98-11.51-2.98-8.58,0-14.87,3.73-18.87,11.18-4,7.46-6.05,17.26-6.14,29.43h.88c1.91-4.61,4.81-8.56,8.68-11.84,3.87-3.29,8.39-5.81,13.54-7.58s10.59-2.65,16.33-2.65c9.12,0,17.11,2.06,23.95,6.18,6.84,4.12,12.18,9.76,16,16.92,3.83,7.16,5.71,15.35,5.67,24.57,.05,10.79-2.49,20.23-7.61,28.33-5.13,8.09-12.23,14.37-21.3,18.83-9.07,4.46-19.55,6.69-31.41,6.69Zm-.29-30.9c4.07,0,7.69-.93,10.85-2.8,3.16-1.86,5.64-4.41,7.43-7.65,1.79-3.24,2.66-6.92,2.61-11.04,.05-4.17-.82-7.86-2.61-11.07-1.79-3.21-4.27-5.75-7.43-7.61-3.16-1.86-6.78-2.8-10.85-2.8-2.99,0-5.75,.53-8.28,1.58-2.53,1.05-4.72,2.55-6.58,4.49-1.86,1.94-3.32,4.22-4.38,6.84-1.06,2.62-1.61,5.48-1.66,8.57,.05,4.12,.98,7.8,2.8,11.04,1.81,3.24,4.29,5.79,7.43,7.65,3.14,1.87,6.69,2.8,10.67,2.8Z"/>
    <path class="cls-1" d="M281.84,439.27v-31.78l60.62-95.35h28.84v42.38h-16.48l-32.67,51.79v1.18h89.46v31.78h-129.78Zm73.28,23.54v-33.25l.88-13.83v-103.59h38.26v150.67h-39.14Z"/>
    <path class="cls-1" d="M481.2,467.97c-12.45,0-23.09-4.37-31.95-13.12-8.85-8.74-13.22-19.39-13.12-31.95-.11-12.23,4.26-22.69,13.12-31.38s19.5-13.04,31.95-13.04c11.8,0,22.23,4.35,31.3,13.04,9.07,8.69,13.65,19.15,13.76,31.38-.11,8.37-2.28,15.96-6.52,22.77-4.24,6.81-9.74,12.23-16.5,16.25-6.76,4.02-14.11,6.04-22.05,6.04Z"/>
  </g>
</svg>